<svg xmlns="http://www.w3.org/2000/svg" width="57.996" height="15.11" fill="none" overflow="visible"><path d="M 23.577 0 C 23.918 0.002 25.409 0.017 26.879 0.034 C 33.798 0.085 41.689 2.041 48.075 5.304 C 50.339 6.46 50.919 6.689 50.391 6.178 C 49.935 5.743 48.979 3.601 49.078 3.185 C 49.116 2.968 49.336 2.665 49.572 2.51 C 49.925 2.255 50.077 2.28 50.676 2.847 C 53.068 5.073 58.38 12.377 57.974 12.893 C 57.863 13.034 57.809 13.296 57.834 13.506 C 57.858 13.715 57.732 13.901 57.564 13.921 C 57.396 13.94 57.259 14.042 57.274 14.168 C 57.286 14.273 57.194 14.39 57.047 14.407 C 56.921 14.422 56.647 14.625 56.46 14.839 C 56.143 15.217 55.908 15.202 52.496 14.777 C 50.509 14.524 47.565 14.278 45.965 14.234 C 43.358 14.139 39.735 13.718 39.383 13.441 C 39.124 13.237 39.413 12.267 39.971 11.584 C 40.879 10.455 42.133 10.264 47.294 10.374 C 47.87 10.391 48.311 10.339 48.301 10.255 C 48.293 10.192 47.199 9.577 45.843 8.909 C 43.059 7.495 37.258 5.396 34.239 4.691 C 33.1 4.422 32.303 4.155 32.471 4.135 C 32.678 4.089 32.65 4.029 32.341 3.938 C 31.724 3.756 31.139 3.846 31.714 4.033 C 32.091 4.159 32.093 4.18 31.619 4.13 C 31.321 4.123 30.978 4.1 30.873 4.112 C 30.747 4.127 30.797 4.015 30.953 3.89 C 31.163 3.695 31.098 3.681 30.691 3.836 C 30.302 3.967 30.001 3.939 29.764 3.733 C 29.321 3.403 28.87 3.371 29.143 3.7 C 29.245 3.837 29.166 3.889 28.906 3.856 C 28.168 3.731 26.178 3.627 24.22 3.625 C 22.303 3.597 14.741 4.41 14.073 4.702 C 13.892 4.787 12.777 5.068 11.615 5.313 C 8.859 5.937 6.751 6.634 4.496 7.71 C 2.121 8.843 1.276 9.433 1.191 9.974 C 1.139 10.427 0.401 10.664 0.125 10.314 C -0.176 9.924 0.082 8.872 0.735 7.923 C 1.512 6.767 4.133 5.009 6.808 3.883 C 10.21 2.437 15.446 1.029 19.38 0.477 C 21.325 0.203 23.216 0 23.577 0 Z M 26.554 0.881 C 26.569 1.006 29.392 1.139 29.482 1.001 C 29.519 0.954 29.061 0.86 28.42 0.829 C 27.092 0.753 26.539 0.755 26.554 0.881 Z M 30.854 1.264 C 35.959 1.977 41.836 3.64 45.974 5.532 C 47.796 6.358 48.107 6.47 47.485 6.076 C 45.711 4.925 39.91 2.827 36.035 1.904 C 34.109 1.452 30.69 0.964 30.082 1.036 C 29.854 1.085 30.204 1.171 30.854 1.264 Z M 34.431 4.519 C 34.611 4.604 35.004 4.685 35.307 4.734 C 35.76 4.787 35.734 4.748 35.18 4.558 C 34.471 4.323 33.872 4.288 34.431 4.519 Z M 36.186 4.97 C 36.366 5.055 36.61 5.133 36.736 5.118 C 36.84 5.106 36.786 5.006 36.606 4.921 C 36.426 4.836 36.161 4.761 36.056 4.773 C 35.931 4.788 36.006 4.885 36.186 4.97 Z M 37.285 5.265 C 37.465 5.351 37.708 5.428 37.834 5.413 C 37.939 5.401 37.885 5.301 37.704 5.216 C 37.524 5.131 37.26 5.056 37.155 5.068 C 37.029 5.083 37.105 5.181 37.285 5.265 Z M 41.165 6.592 C 42.634 7.141 44.719 8.042 45.804 8.573 C 46.911 9.122 47.786 9.508 47.779 9.445 C 47.734 9.067 39.351 5.467 38.698 5.523 C 38.572 5.538 39.693 6.022 41.165 6.592 Z M 42.531 6.451 C 42.536 6.493 42.831 6.649 43.21 6.796 C 44.055 7.1 44.077 6.927 43.23 6.602 C 42.537 6.323 42.514 6.304 42.531 6.451 Z M 44.441 7.309 C 45.036 7.664 45.684 7.928 45.669 7.802 C 45.657 7.697 44.233 6.994 44.087 7.011 C 44.026 7.039 44.19 7.169 44.441 7.309 Z M 48.011 9.608 C 48.016 9.65 48.204 9.798 48.41 9.923 C 48.778 10.156 48.797 10.132 48.484 9.829 C 48.171 9.526 47.991 9.441 48.011 9.608 Z" fill="rgb(255, 255, 255)"></path></svg>