<svg width="40" height="40" viewBox="0 0 40 40" fill="none" xmlns="http://www.w3.org/2000/svg">
<path d="M31.6956 33.6434C33.9246 33.1606 35.965 31.6494 37.2925 29.4979C38.6469 27.3037 39.0827 24.7195 38.4882 22.4075C37.6301 19.0707 34.8945 17.2671 33.3405 16.4883C32.1119 15.873 31.3514 14.6389 31.4033 13.3456C31.4087 13.2186 31.4191 13.1075 31.4295 13.0154C31.7396 10.3713 34.4391 8.07334 37.9944 7.42637C38.3198 7.36778 38.5425 7.06565 38.5035 6.73729C38.4656 6.42173 38.1977 6.18675 37.8834 6.18675C37.8712 6.18675 37.8589 6.18736 37.8461 6.18797C35.6891 6.3137 28.3063 7.2219 23.8813 13.6245C20.774 18.1203 19.0101 25.0771 22.4793 29.7274C24.3683 32.2604 27.9487 34.4534 31.6956 33.6434ZM24.9091 14.3349C27.0496 11.2386 30.0062 9.52903 32.5843 8.58543C31.2433 9.75791 30.3785 11.2441 30.188 12.8707C30.174 12.9891 30.1612 13.1307 30.1545 13.2943C30.0825 15.079 31.1133 16.7715 32.7808 17.6064C34.4471 18.4408 36.5796 20.0051 37.2773 22.7187C37.7881 24.703 37.4055 26.935 36.2293 28.8418C35.0788 30.7058 33.3301 32.0107 31.4307 32.4215C30.9931 32.5167 30.5549 32.5607 30.1215 32.5607C27.4042 32.5607 24.8585 30.8266 23.4815 28.9803C19.9122 24.1952 22.8547 17.308 24.9091 14.3349Z" fill="#DC6E4B"/>
<path d="M12.3704 33.6428C14.5994 33.16 16.6392 31.6494 17.9667 29.4979C19.3211 27.3037 19.7575 24.7189 19.163 22.4069C18.3043 19.0701 15.5693 17.2659 14.0153 16.4877C12.7861 15.8724 12.0256 14.6383 12.0781 13.345C12.0836 13.2192 12.0927 13.1094 12.1043 13.0148C12.4144 10.3707 15.114 8.07276 18.6693 7.42579C18.9946 7.36719 19.2173 7.06507 19.1783 6.7367C19.1404 6.42115 18.8725 6.18616 18.5582 6.18616C18.546 6.18616 18.5338 6.18677 18.5209 6.18738C16.364 6.31312 8.98114 7.22132 4.55609 13.6239C1.44879 18.1191 -0.315738 25.0759 3.15411 29.7268C5.04315 32.2598 8.62652 34.4515 12.3704 33.6428ZM5.58392 14.3344C7.72443 11.238 10.6804 9.52906 13.2579 8.58484C11.9175 9.75672 11.0539 11.2423 10.8629 12.8671C10.8488 12.9861 10.836 13.1289 10.8293 13.2937C10.7567 15.0778 11.7875 16.7703 13.4556 17.6058C15.1213 18.4396 17.2538 20.0039 17.9521 22.7181C18.4623 24.703 18.0803 26.9351 16.9035 28.8418C15.753 30.7052 14.0043 32.0101 12.1055 32.4209C11.6679 32.5161 11.2303 32.5601 10.7963 32.5601C8.07904 32.5601 5.53265 30.8261 4.15631 28.9797C0.586362 24.194 3.52948 17.3074 5.58392 14.3344Z" fill="#DC6E4B"/>
</svg>
